<?xml version="1.0" encoding="utf-8"?>
<!-- Generator: Adobe Illustrator 23.0.1, SVG Export Plug-In . SVG Version: 6.00 Build 0)  -->
<svg version="1.1" id="Layer_1" xmlns="http://www.w3.org/2000/svg" xmlns:xlink="http://www.w3.org/1999/xlink" x="0px" y="0px"
	 viewBox="0 0 1920 820" style="enable-background:new 0 0 1920 820;" xml:space="preserve">
<style type="text/css">
	.st0{fill:#C4C4C4;filter:url(#Adobe_OpacityMaskFilter);}
	.st1{mask:url(#mask0_1_);}
	.st2{fill:none;stroke:#2CCFBB;stroke-width:6;}
	.st3{opacity:0.6;fill:none;stroke:#D1F3CC;stroke-width:4;enable-background:new    ;}
	.st4{fill:none;stroke:#FFE037;stroke-width:3;}
	.st5{fill:none;stroke:#75D48B;stroke-width:12;}
	.st6{fill:none;stroke:#FFFFFF;stroke-width:3;}
	.st7{fill:none;stroke:#38BAAE;stroke-width:3;}
	.st8{opacity:0.4;}
	.st9{fill:#2CCFBB;fill-opacity:0.5;}
	.st10{fill:#47D4DD;}
	.st11{fill:#EDD573;}
	.st12{fill:none;stroke:#FFE037;stroke-width:210;stroke-opacity:0.1;}
	.st13{opacity:0.1;}
	.st14{fill:#FFFFFF;}
	.st15{fill:none;stroke:#FFFFFF;stroke-width:5;stroke-opacity:0.2;}
	.st16{opacity:0.5;fill:none;stroke:#FFFFFF;stroke-width:2;enable-background:new    ;}
</style>
<defs>
	<filter id="Adobe_OpacityMaskFilter" filterUnits="userSpaceOnUse" x="-127.5" y="-259.7" width="2195.5" height="1360.7">
		<feColorMatrix  type="matrix" values="1 0 0 0 0  0 1 0 0 0  0 0 1 0 0  0 0 0 1 0"/>
	</filter>
</defs>
<mask maskUnits="userSpaceOnUse" x="-127.5" y="-259.7" width="2195.5" height="1360.7" id="mask0_1_">
	<rect class="st0" width="1920" height="820"/>
</mask>
<g class="st1">
	<g>
		<circle class="st2" cx="147.5" cy="103.5" r="18.5"/>
	</g>
	<circle class="st3" cx="1798.5" cy="499.6" r="7.5"/>
	<circle class="st4" cx="1751.5" cy="114.6" r="5"/>
	<g>
		<path class="st5" d="M290.7,344.5c-7.6-13-24.3-17.3-37.3-9.6c-13,7.6-17.3,24.3-9.6,37.3"/>
	</g>
	<path class="st5" d="M1775.4,325.9c9.7,9.9,9.6,25.8-0.3,35.6c-9.9,9.7-25.8,9.6-35.5-0.3"/>
	
		<rect x="1496.4" y="168.5" transform="matrix(0.7071 -0.7071 0.7071 0.7071 315.6263 1115.9294)" class="st6" width="17" height="17"/>
	<g>
		
			<rect x="899.3" y="113.4" transform="matrix(0.7071 -0.7071 0.7071 0.7071 181.2281 673.8892)" class="st7" width="9.6" height="9.6"/>
	</g>
	<g class="st8">
		
			<rect x="763.6" y="589.7" transform="matrix(0.7071 -0.7071 0.7071 0.7071 -196.9931 721.4986)" class="st6" width="17.6" height="17.6"/>
	</g>
	<rect x="1026" y="360.1" transform="matrix(0.7071 -0.7071 0.7071 0.7071 35.8575 836.752)" class="st9" width="4" height="30"/>
	<rect x="1013" y="373.1" transform="matrix(0.7071 -0.7071 0.7071 0.7071 35.8585 836.7528)" class="st9" width="30" height="4"/>
	<g>
		
			<rect x="413.6" y="125.7" transform="matrix(0.7071 -0.7071 0.7071 0.7071 33.6324 334.4218)" class="st10" width="13.7" height="1.8"/>
		
			<rect x="419.6" y="119.8" transform="matrix(0.7071 -0.7071 0.7071 0.7071 33.6326 334.4225)" class="st10" width="1.8" height="13.7"/>
	</g>
	<g>
		
			<rect x="123.3" y="610.3" transform="matrix(0.2588 -0.9659 0.9659 0.2588 -506.2225 579.5028)" class="st11" width="2.5" height="18.7"/>
		
			<rect x="115.1" y="618.4" transform="matrix(0.2588 -0.9659 0.9659 0.2588 -506.2235 579.5025)" class="st11" width="18.7" height="2.5"/>
	</g>
	<path class="st12" d="M937,483c0-283.3,229.7-513,513-513s513,229.7,513,513s-229.7,513-513,513S937,766.3,937,483z"/>
	<g class="st13">
		<circle class="st14" cx="563.2" cy="429" r="7"/>
		<circle class="st15" cx="563.2" cy="429" r="34.5"/>
		<circle class="st14" cx="272.5" cy="744.2" r="7"/>
		<circle class="st15" cx="272.5" cy="744.2" r="34.5"/>
		<circle class="st14" cx="1326.9" cy="214.7" r="7"/>
		<circle class="st15" cx="1326.9" cy="214.7" r="34.5"/>
		<circle class="st14" cx="1871.8" cy="350.9" r="7"/>
		<circle class="st15" cx="1871.8" cy="350.9" r="34.5"/>
		<line class="st16" x1="-126.5" y1="480.7" x2="563.7" y2="428.7"/>
		<line class="st16" x1="-106" y1="-13.4" x2="564.4" y2="428.9"/>
		<line class="st16" x1="306.1" y1="-259.4" x2="564.7" y2="429.4"/>
		<line class="st16" x1="272.3" y1="744.3" x2="563.1" y2="429"/>
		<line class="st16" x1="861.4" y1="949" x2="562.9" y2="430.2"/>
		<line class="st16" x1="1327.8" y1="216.4" x2="564.1" y2="430.7"/>
		<line class="st16" x1="915.1" y1="-97.8" x2="564.6" y2="430.3"/>
		<line class="st16" x1="1484.7" y1="863.7" x2="563.4" y2="430.6"/>
		<line class="st16" x1="1484.2" y1="863.1" x2="1326.5" y2="215.7"/>
		<line class="st16" x1="1977.3" y1="831.4" x2="1326.8" y2="216.2"/>
		<line class="st16" x1="1872.1" y1="352.6" x2="1327.3" y2="216.4"/>
		<line class="st16" x1="1787.2" y1="-77.6" x2="1328.1" y2="216.3"/>
		<line class="st16" x1="914.9" y1="-99.1" x2="1328.1" y2="214.6"/>
		<line class="st16" x1="1871.4" y1="351.8" x2="1785.7" y2="-78.2"/>
		<line class="st16" x1="1873.3" y1="351.4" x2="1979.3" y2="830.4"/>
		<line class="st16" x1="271.8" y1="744" x2="862.6" y2="947.6"/>
		<line class="st16" x1="270.9" y1="745.8" x2="-127" y2="482.6"/>
	</g>
</g>
<image style="overflow:visible;" width="1280" height="720" xlink:href="../../../../../Users/cic_a/Downloads/new-banner.jpg"  transform="matrix(1.5024 0 0 1.5024 0 -48.7523)">
</image>
</svg>
